<svg width="95" height="96" viewBox="0 0 95 96" fill="none" xmlns="http://www.w3.org/2000/svg">
<path d="M52.3339 -12.004C45.2061 -9.49959 37.5967 1.28843 35.4776 11.8838C34.8997 14.7735 34.2254 17.6631 34.0328 18.3373C33.7438 19.1079 32.2027 18.819 28.5424 17.4705C21.4146 14.5808 10.2413 14.4845 5.6179 17.2778C-7.09655 24.5983 1.57239 36.7348 33.6475 56.4807C35.5739 57.6366 37.0187 60.2372 39.2341 66.2092C44.4355 80.5611 52.7192 95.6836 55.4162 95.6836C56.2831 95.6836 64.0851 91.9271 72.7541 87.3999C91.0552 77.8641 88.7434 78.1531 109.645 82.6802C125.731 86.1478 139.216 86.3404 144.899 83.3544C155.302 77.9604 150.004 66.8834 133.726 59.9483C129.776 58.2145 126.213 56.577 125.827 56.2881C125.442 55.9991 127.754 52.6278 130.932 48.9676C141.335 36.8311 145.188 25.6578 142.009 17.2778C139.312 10.2463 132.762 8.31991 122.071 11.4985C114.461 13.7139 100.206 21.4196 89.4177 29.2217C84.3127 32.8819 79.6892 35.9642 79.2076 35.9642C78.726 35.9642 78.3407 31.0518 78.2444 25.0799C78.1481 7.16405 72.6577 -6.32098 63.4109 -11.0407C58.7874 -13.3525 56.7647 -13.5451 52.3339 -12.004ZM61.3881 -5.06879C64.4704 -3.33501 68.9012 3.50382 70.7313 9.37944C71.5982 12.2691 72.4651 19.6859 72.7541 27.5842C73.332 42.0325 74.1989 44.3442 78.1481 42.803C79.4003 42.3214 87.0097 37.409 95.197 31.9187C111.379 21.0344 122.745 15.7367 130.162 15.7367C136.134 15.7367 137.964 17.9521 137.386 24.6946C136.326 37.987 123.805 52.0499 100.302 66.5945C94.6191 70.1584 89.6103 72.5664 87.9729 72.5664C81.712 72.5664 44.8208 58.2145 42.7017 54.8432C40.4863 51.3757 39.1378 35.001 40.2937 23.8277C41.8348 8.51255 45.6877 -0.541679 52.2376 -4.58719C55.7051 -6.70627 58.2095 -6.80259 61.3881 -5.06879ZM26.8087 21.4196L33.0696 23.0571L33.7438 36.9274C34.1291 44.6331 34.3217 50.9904 34.1291 51.0867C34.0328 51.183 30.5652 49.1603 26.4234 46.5596C16.5022 40.106 5.6179 29.5107 5.6179 26.1394C5.6179 20.1675 14.5758 18.1447 26.8087 21.4196ZM130.74 63.5122C138.349 66.8834 143.261 70.5437 144.995 73.9149C146.44 76.6119 146.344 76.9009 144.417 78.442C139.987 82.1022 126.694 82.0059 108.586 78.3457C103.095 77.1898 98.183 75.9377 97.7977 75.5524C97.3161 75.0708 102.132 71.4106 108.393 67.365C121.107 59.1777 121.204 59.0814 130.74 63.5122ZM58.5948 67.5577C65.241 70.1584 73.1393 73.1443 76.2216 74.1076C79.2076 75.0708 81.712 76.1303 81.712 76.5156C81.712 77.1898 57.4389 90.8675 56.2831 90.8675C55.3198 90.8675 48.2884 76.2266 46.1693 69.8694C43.8576 63.0306 43.6649 61.5857 45.3987 62.26C45.9767 62.549 51.9486 64.957 58.5948 67.5577Z" fill="#69CEE9"/>
</svg>
